<?xml version="1.0" standalone="no"?>
<!DOCTYPE svg PUBLIC "-//W3C//DTD SVG 20010904//EN"
 "http://www.w3.org/TR/2001/REC-SVG-20010904/DTD/svg10.dtd">
<svg version="1.0" xmlns="http://www.w3.org/2000/svg"
 width="1329.000000pt" height="1329.000000pt" viewBox="0 0 1329.000000 1329.000000"
 preserveAspectRatio="xMidYMid meet">
<metadata>
Created by potrace 1.14, written by Peter Selinger 2001-2017
</metadata>
<g transform="translate(0.000000,1329.000000) scale(0.100000,-0.100000)"
fill="#000000" stroke="none">
<path d="M4350 11831 c-39 -13 -83 -38 -110 -63 -14 -13 -74 -66 -134 -118
-60 -52 -119 -104 -130 -115 -12 -11 -71 -63 -131 -115 -61 -52 -112 -97 -115
-100 -3 -3 -43 -39 -90 -80 -47 -41 -90 -79 -96 -85 -6 -5 -40 -35 -74 -65
-35 -30 -68 -59 -74 -65 -6 -6 -60 -53 -121 -105 -60 -52 -116 -102 -125 -110
-9 -8 -49 -44 -90 -80 -122 -107 -165 -145 -170 -150 -3 -3 -57 -51 -120 -105
-105 -92 -142 -124 -205 -180 -12 -11 -33 -29 -46 -40 -13 -12 -87 -77 -165
-145 -77 -69 -171 -152 -209 -185 -38 -33 -73 -64 -79 -70 -6 -5 -45 -39 -86
-75 -41 -36 -77 -67 -80 -70 -3 -3 -61 -54 -130 -114 -69 -60 -141 -123 -160
-140 -19 -18 -71 -64 -115 -102 -129 -114 -115 216 -115 -2663 0 -1901 3
-2503 12 -2533 13 -43 67 -104 183 -205 113 -98 347 -303 385 -337 19 -17 91
-81 160 -141 69 -60 139 -121 155 -136 17 -15 113 -100 215 -189 102 -90 216
-190 255 -224 38 -34 87 -77 110 -96 22 -19 42 -37 45 -40 3 -3 41 -37 85 -75
44 -39 82 -72 85 -75 3 -3 59 -53 125 -110 66 -58 181 -158 255 -224 74 -65
164 -145 200 -176 36 -31 105 -92 155 -136 49 -43 103 -90 119 -104 15 -14 38
-34 50 -45 12 -11 53 -47 91 -80 38 -33 100 -88 139 -122 80 -71 122 -94 182
-101 83 -9 139 15 231 98 21 19 74 66 118 105 44 38 82 72 85 75 3 3 55 48
115 100 61 52 112 98 115 101 3 3 61 54 130 114 69 60 141 123 160 141 19 17
94 83 165 145 72 62 132 116 135 119 3 3 39 34 80 70 41 36 80 70 86 75 6 6
35 31 64 56 29 24 60 51 69 60 9 9 61 56 116 104 158 140 252 244 347 387 l45
68 38 -58 c125 -188 218 -283 651 -657 38 -33 89 -78 114 -101 25 -22 60 -54
79 -70 30 -25 158 -138 269 -237 19 -16 68 -59 110 -95 43 -37 79 -69 82 -72
5 -5 111 -99 245 -215 95 -83 244 -214 280 -247 51 -47 94 -63 170 -63 57 0
78 5 111 25 32 19 514 435 606 523 7 7 83 73 168 147 85 74 160 139 166 145
11 10 122 108 160 142 73 63 149 129 158 138 6 6 67 59 136 120 69 60 136 120
150 132 14 12 36 32 50 43 14 12 41 36 60 53 19 18 91 81 160 142 69 60 139
121 155 136 27 24 82 72 300 263 38 34 92 81 120 106 48 43 163 143 209 183
12 10 39 35 62 55 22 20 70 62 105 92 96 83 129 121 142 167 9 32 12 606 12
2545 l-1 2503 -21 40 c-22 41 -71 91 -202 205 -41 36 -82 72 -91 80 -38 34
-89 79 -165 145 -44 39 -82 72 -85 75 -3 3 -79 71 -170 150 -91 79 -178 156
-194 170 -16 14 -34 30 -40 35 -6 6 -83 73 -171 150 -87 77 -167 147 -175 155
-9 8 -30 26 -46 40 -16 14 -85 75 -154 135 -68 61 -138 122 -155 136 -16 15
-111 98 -210 185 -99 87 -193 170 -209 184 -16 14 -34 30 -40 35 -6 6 -49 44
-96 84 -47 41 -87 77 -90 80 -3 4 -34 31 -70 61 -35 30 -71 62 -80 70 -9 8
-42 38 -74 65 -32 28 -73 64 -91 80 -18 17 -61 55 -96 85 -34 30 -70 62 -79
70 -52 50 -114 92 -155 106 -83 29 -177 4 -255 -68 -14 -13 -48 -43 -75 -67
-28 -24 -63 -55 -80 -70 -16 -15 -66 -58 -110 -96 -44 -39 -82 -72 -85 -75 -3
-3 -57 -50 -120 -105 -63 -55 -117 -102 -120 -105 -3 -3 -77 -68 -165 -145
-88 -76 -167 -146 -176 -155 -8 -8 -40 -35 -69 -60 -29 -25 -61 -52 -69 -60
-9 -9 -50 -45 -91 -80 -41 -36 -77 -67 -80 -70 -10 -10 -98 -87 -160 -140
-106 -91 -210 -191 -269 -261 -82 -97 -87 -103 -137 -179 l-47 -70 -45 68
c-120 179 -183 245 -507 527 -88 77 -162 142 -165 145 -3 3 -43 39 -90 80 -47
41 -90 79 -96 84 -6 6 -37 34 -69 61 -33 28 -71 62 -87 76 -15 14 -53 47 -85
75 -32 27 -76 65 -98 85 -22 20 -55 49 -74 65 -19 16 -39 34 -46 41 -7 7 -53
47 -101 89 -49 43 -91 80 -94 83 -3 3 -36 33 -75 66 -38 33 -72 62 -75 65 -3
3 -39 34 -80 70 -41 36 -83 73 -94 82 -48 43 -158 68 -216 49z m140 -617 c41
-37 89 -78 105 -93 38 -32 178 -155 225 -197 19 -17 62 -55 95 -84 33 -29 78
-69 101 -89 22 -20 69 -61 104 -91 34 -30 68 -60 74 -65 6 -6 65 -58 131 -115
66 -58 122 -107 125 -110 3 -3 79 -70 170 -149 91 -79 200 -180 243 -223 176
-182 293 -422 332 -683 17 -112 12 -294 -11 -405 -3 -14 -7 -38 -10 -54 -11
-56 -66 -202 -110 -286 -85 -164 -185 -278 -444 -500 -41 -36 -77 -68 -80 -71
-3 -3 -48 -43 -100 -88 -139 -122 -222 -195 -234 -206 -17 -15 -232 -205 -416
-365 -91 -80 -167 -147 -170 -150 -3 -3 -39 -34 -80 -70 -41 -36 -77 -67 -80
-70 -47 -47 -33 -54 -221 112 -96 85 -284 250 -419 368 -135 118 -261 229
-280 246 -46 41 -321 284 -635 559 -537 472 -665 583 -792 697 l-132 117 27
21 c15 12 56 48 92 80 36 31 146 128 245 216 99 87 185 163 191 168 6 6 35 31
64 56 73 62 78 67 156 136 38 34 152 134 254 224 102 89 201 176 220 194 19
17 87 76 150 131 63 55 117 102 120 105 3 3 39 35 80 70 41 36 79 70 85 76 5
6 41 37 79 70 38 32 79 68 90 79 12 11 51 45 86 75 36 30 87 75 115 101 27 25
106 94 175 154 69 61 141 124 160 142 19 18 37 33 40 33 3 0 39 -30 80 -66z
m4057 13 c5 -7 28 -28 53 -48 25 -20 59 -50 75 -65 17 -16 60 -54 95 -84 36
-30 85 -73 110 -96 25 -23 63 -57 85 -75 22 -19 42 -36 45 -39 3 -3 41 -36 85
-75 44 -38 82 -72 85 -75 3 -3 59 -52 125 -110 66 -58 122 -107 125 -110 3 -3
39 -34 80 -70 41 -36 77 -67 80 -70 3 -3 61 -55 130 -115 69 -61 130 -114 136
-120 6 -5 39 -35 74 -65 35 -30 68 -59 74 -65 6 -5 83 -73 171 -150 88 -77
162 -142 165 -145 3 -3 41 -36 85 -75 44 -38 85 -74 91 -80 6 -5 42 -37 80
-70 37 -33 91 -80 119 -105 131 -115 193 -170 229 -201 22 -19 51 -45 65 -57
l26 -24 1 -2134 c0 -1174 -1 -2134 -3 -2134 -3 0 -244 211 -448 391 -123 109
-418 368 -550 484 -88 77 -162 142 -165 145 -6 6 -72 65 -165 145 -37 33 -73
65 -79 70 -6 6 -137 121 -291 255 -154 135 -282 247 -285 250 -12 12 -110 100
-169 150 -35 30 -69 60 -75 65 -23 21 -192 169 -216 189 -45 38 -232 201 -254
221 -6 6 -146 129 -311 274 -165 145 -313 276 -330 290 -16 15 -68 60 -115
101 -47 40 -89 78 -95 84 -5 6 -59 54 -120 106 -60 52 -120 104 -132 115 -11
11 -53 49 -92 84 -110 99 -124 114 -183 187 -79 100 -167 252 -191 330 -49
162 -49 162 -67 269 -9 52 -6 314 4 374 50 296 197 545 456 771 35 30 68 60
74 65 6 6 45 40 88 77 42 36 91 79 110 95 29 27 80 71 188 167 20 17 56 49 81
71 25 22 76 67 114 100 69 60 108 94 241 211 38 34 149 132 247 218 l179 156
29 -20 c16 -12 32 -26 36 -33z m-6621 -2672 c11 -11 34 -31 50 -45 95 -82 530
-464 534 -469 3 -3 39 -35 80 -71 134 -116 144 -124 190 -166 25 -22 106 -94
180 -158 74 -65 153 -135 176 -155 58 -52 161 -142 304 -267 69 -60 141 -123
160 -140 33 -30 325 -286 475 -418 38 -34 92 -81 120 -106 28 -25 65 -56 81
-70 44 -37 178 -154 184 -160 3 -3 59 -52 125 -110 66 -58 125 -109 131 -115
29 -26 86 -76 154 -135 41 -36 79 -70 85 -76 5 -6 41 -37 80 -70 38 -32 79
-68 91 -79 21 -20 44 -40 285 -251 474 -415 500 -441 604 -599 229 -349 253
-832 59 -1217 -102 -202 -167 -272 -630 -675 -12 -10 -50 -43 -85 -73 -35 -30
-70 -62 -79 -70 -9 -8 -49 -44 -90 -80 -41 -36 -77 -67 -80 -70 -3 -3 -59 -52
-125 -110 -66 -58 -122 -107 -125 -110 -3 -3 -95 -84 -205 -179 -110 -96 -210
-183 -222 -194 l-22 -20 -73 64 c-40 35 -78 69 -84 74 -32 29 -91 80 -199 175
-66 58 -125 110 -131 115 -6 6 -27 24 -45 40 -19 17 -70 62 -114 101 -44 39
-93 82 -109 95 -16 13 -38 33 -50 44 -12 11 -111 99 -221 195 -188 164 -245
214 -284 250 -9 8 -46 40 -81 70 -35 30 -71 62 -80 70 -14 13 -98 87 -166 147
-77 67 -149 129 -158 138 -6 6 -47 42 -91 80 -44 39 -82 72 -85 76 -3 3 -115
101 -250 219 -135 118 -264 233 -288 255 l-44 41 1 2040 c0 1121 0 2081 1
2133 l0 94 22 -19 c12 -10 32 -28 44 -39z m4574 -362 c92 -136 212 -266 370
-403 35 -30 87 -75 115 -100 28 -25 80 -71 115 -102 89 -78 99 -86 166 -145
32 -28 68 -60 80 -70 12 -10 50 -44 85 -75 86 -76 339 -299 419 -370 36 -31
81 -70 100 -87 19 -17 63 -55 97 -83 34 -29 63 -57 66 -63 2 -5 -65 -71 -150
-145 -85 -74 -162 -142 -171 -150 -10 -8 -71 -62 -137 -120 -66 -58 -124 -110
-130 -116 -5 -5 -39 -35 -75 -65 -35 -30 -71 -61 -80 -69 -9 -8 -49 -44 -90
-80 -40 -36 -84 -74 -96 -85 -12 -11 -46 -40 -74 -64 -29 -25 -58 -50 -64 -55
-12 -12 -148 -132 -205 -181 -134 -116 -253 -248 -341 -378 l-52 -78 -60 88
c-104 153 -191 245 -402 428 -39 33 -77 67 -86 75 -9 8 -49 44 -90 80 -41 36
-77 67 -80 70 -3 3 -72 64 -154 135 -188 165 -206 180 -236 208 -14 13 -79 70
-145 128 -66 57 -122 106 -125 109 -3 3 -54 48 -114 100 -60 52 -125 109 -145
127 l-36 32 31 28 c31 29 131 116 174 153 14 12 41 36 60 53 19 18 87 77 150
132 63 55 117 102 120 105 3 3 41 37 85 75 44 39 85 75 91 80 6 6 39 35 74 65
35 30 82 71 104 91 55 49 137 120 226 199 288 253 326 290 420 407 32 40 75
99 95 132 21 34 39 61 41 61 1 0 26 -35 54 -77z m2097 -1923 c59 -52 110 -97
113 -100 3 -3 23 -20 45 -39 22 -19 76 -66 120 -105 123 -110 175 -156 250
-221 65 -56 133 -116 215 -189 19 -17 89 -78 155 -136 66 -58 122 -107 125
-110 3 -3 59 -52 125 -110 66 -57 122 -107 125 -110 3 -3 61 -54 130 -114 69
-60 141 -123 160 -140 19 -17 73 -65 120 -106 47 -41 87 -77 90 -80 3 -3 95
-84 205 -180 110 -96 218 -191 240 -211 22 -20 52 -47 67 -60 16 -13 25 -29
20 -34 -4 -6 -77 -71 -162 -145 -85 -74 -157 -137 -160 -140 -3 -3 -79 -70
-170 -150 -91 -79 -188 -164 -215 -189 -28 -25 -75 -67 -105 -93 -30 -26 -64
-55 -76 -65 -44 -38 -171 -150 -219 -193 -27 -25 -104 -93 -170 -150 -66 -57
-124 -109 -130 -114 -5 -6 -59 -54 -120 -106 -60 -52 -128 -111 -150 -131 -22
-20 -103 -91 -180 -159 -77 -67 -169 -148 -205 -180 -36 -32 -108 -95 -160
-141 -52 -46 -112 -99 -133 -119 -52 -48 -65 -54 -81 -38 -7 7 -37 33 -66 58
-29 25 -65 56 -80 70 -15 14 -43 38 -61 54 -71 61 -184 161 -189 166 -3 3 -39
35 -80 70 -41 36 -77 67 -80 70 -3 3 -61 55 -130 115 -69 60 -127 111 -130
115 -3 3 -34 30 -70 60 -36 30 -69 60 -75 66 -5 6 -46 42 -90 80 -44 37 -82
71 -85 74 -3 3 -57 50 -120 105 -222 194 -316 308 -405 495 -45 94 -88 235
-103 340 -9 61 -9 324 1 381 30 185 116 388 226 535 74 98 127 152 296 300 39
34 149 130 245 215 96 84 183 160 193 169 10 8 31 26 46 40 15 14 58 52 96 86
134 117 297 261 329 289 6 6 45 39 86 75 41 36 77 67 80 70 3 3 41 37 85 75
44 39 82 74 84 78 5 13 15 6 128 -93z"/>
</g>
</svg>
